HIERARCHY
ROOT hips
{
  OFFSET 0 10.6860622 2.3727825e-15
  CHANNELS 6 Xposition Yposition Zposition Yrotation Xrotation Zrotation
  JOINT leftUpperLeg
  {
    OFFSET 0.6642549969 -0.9402397400000004 0
    CHANNELS 3 Yrotation Xrotation Zrotation
    JOINT leftLowerLeg
    {
      OFFSET 0 -3.997221335632195 0
      CHANNELS 3 Yrotation Xrotation Zrotation
      JOINT leftFoot
      {
        OFFSET -0.13777839790000004 -4.6145792000000005 -0.22186036399999998
        CHANNELS 3 Yrotation Xrotation Zrotation
        JOINT leftToes
        {
          OFFSET -0.03777410834999995 -0.9130806927000008 0.85230013
          CHANNELS 3 Yrotation Xrotation Zrotation
          End Site
          {
            OFFSET -0.03777410834999995 -0.9130806927000008 0.85230013
          }
        }
      }
    }
  }
  JOINT rightUpperLeg
  {
    OFFSET -0.6642778626 -0.9402397400000004 0
    CHANNELS 3 Yrotation Xrotation Zrotation
    JOINT rightLowerLeg
    {
      OFFSET 0 -3.997221452859387 0
      CHANNELS 3 Yrotation Xrotation Zrotation
      JOINT rightFoot
      {
        OFFSET 0.1377926176 -4.6145792000000005 -0.22185782299999995
        CHANNELS 3 Yrotation Xrotation Zrotation
        JOINT rightToes
        {
          OFFSET 0.037780746850000047 -0.9130806927000008 0.85230167
          CHANNELS 3 Yrotation Xrotation Zrotation
          End Site
          {
            OFFSET 0.037780746850000047 -0.9130806927000008 0.85230167
          }
        }
      }
    }
  }
  JOINT spine
  {
    OFFSET 0 0.13988381660000015 0
    CHANNELS 3 Yrotation Xrotation Zrotation
    JOINT chest
    {
      OFFSET 0 0.6191039003973773 0
      CHANNELS 3 Yrotation Xrotation Zrotation
      JOINT upperChest
      {
        OFFSET 0 0.9855186130586943 0
        CHANNELS 3 Yrotation Xrotation Zrotation
        JOINT leftShoulder
        {
          OFFSET 0.1807663869 1.5087829790000005 0
          CHANNELS 3 Yrotation Xrotation Zrotation
          JOINT leftUpperArm
          {
            OFFSET 0.5985063006419806 0 0
            CHANNELS 3 Yrotation Xrotation Zrotation
            JOINT leftLowerArm
            {
              OFFSET 2.2993332369501065 0 0
              CHANNELS 3 Yrotation Xrotation Zrotation
              JOINT leftHand
              {
                OFFSET 2.395047042602395 0 0
                CHANNELS 3 Yrotation Xrotation Zrotation
                JOINT leftIndexProximal
                {
                  OFFSET 0.5766295810000004 0.04556643899499946 0.17265095988184
                  CHANNELS 3 Yrotation Xrotation Zrotation
                  JOINT leftIndexIntermediate
                  {
                    OFFSET 0.2957229000000008 -0.019352197700001517 -0.007932640616999987
                    CHANNELS 3 Yrotation Xrotation Zrotation
                    JOINT leftIndexDistal
                    {
                      OFFSET 0.19008243099999922 -0.012484908149998475 -0.002786250786000012
                      CHANNELS 3 Yrotation Xrotation Zrotation
                      End Site
                      {
                        OFFSET 0.19008243099999922 -0.012484908149998475 -0.002786250786000012
                      }
                    }
                  }
                }
                JOINT leftMiddleProximal
                {
                  OFFSET 0.5834975091000001 0.0524350405149987 0.02204081888183999
                  CHANNELS 3 Yrotation Xrotation Zrotation
                  JOINT leftMiddleIntermediate
                  {
                    OFFSET 0.33880573540000003 -0.019871473270000717 -0.00000971183179999946
                    CHANNELS 3 Yrotation Xrotation Zrotation
                    JOINT leftMiddleDistal
                    {
                      OFFSET 0.20676022730000088 -0.012221336379999448 0.0001471936708000235
                      CHANNELS 3 Yrotation Xrotation Zrotation
                      End Site
                      {
                        OFFSET 0.20676022730000088 -0.012221336379999448 0.0001471936708000235
                      }
                    }
                  }
                }
                JOINT leftLittleProximal
                {
                  OFFSET 0.5344154683999995 -0.012880921405001189 -0.24414037221816004
                  CHANNELS 3 Yrotation Xrotation Zrotation
                  JOINT leftLittleIntermediate
                  {
                    OFFSET 0.21758961730000093 -0.011650919939999227 0.011893592810000034
                    CHANNELS 3 Yrotation Xrotation Zrotation
                    JOINT leftLittleDistal
                    {
                      OFFSET 0.1475273964999999 -0.008152365682999818 0.006001092492999946
                      CHANNELS 3 Yrotation Xrotation Zrotation
                      End Site
                      {
                        OFFSET 0.1475273964999999 -0.008152365682999818 0.006001092492999946
                      }
                    }
                  }
                }
                JOINT leftRingProximal
                {
                  OFFSET 0.5799399463000003 0.026911854694997794 -0.12150566991816003
                  CHANNELS 3 Yrotation Xrotation Zrotation
                  JOINT leftRingIntermediate
                  {
                    OFFSET 0.26167887460000006 -0.013480186499999602 0.010996293000000053
                    CHANNELS 3 Yrotation Xrotation Zrotation
                    JOINT leftRingDistal
                    {
                      OFFSET 0.17667108799999987 -0.008990287899999228 0.0055541023999999065
                      CHANNELS 3 Yrotation Xrotation Zrotation
                      End Site
                      {
                        OFFSET 0.17667108799999987 -0.008990287899999228 0.0055541023999999065
                      }
                    }
                  }
                }
                JOINT leftThumbProximal
                {
                  OFFSET 0.11018806699999972 -0.09448718900500053 0.17047963138184
                  CHANNELS 3 Yrotation Xrotation Zrotation
                  JOINT leftThumbIntermediate
                  {
                    OFFSET 0.31062601459999983 -0.08126270900000132 0.15443142000000007
                    CHANNELS 3 Yrotation Xrotation Zrotation
                    JOINT leftThumbDistal
                    {
                      OFFSET 0.21627175790000086 -0.08833193599999878 0.018771167799999988
                      CHANNELS 3 Yrotation Xrotation Zrotation
                      End Site
                      {
                        OFFSET 0.21627175790000086 -0.08833193599999878 0.018771167799999988
                      }
                    }
                  }
                }
              }
            }
          }
        }
        JOINT neck
        {
          OFFSET 0 1.5463305265074576 0
          CHANNELS 3 Yrotation Xrotation Zrotation
          JOINT head
          {
            OFFSET 0 0.8456443600000344 0
            CHANNELS 3 Yrotation Xrotation Zrotation
            JOINT leftEye
            {
              OFFSET 0.30408573140000006 0.5104519199999995 0.1276382305
              CHANNELS 3 Yrotation Xrotation Zrotation
              End Site
              {
                OFFSET 0.30408573140000006 0.5104519199999995 0.1276382305
              }
            }
            JOINT rightEye
            {
              OFFSET -0.30409491089999996 0.5104519199999995 0.1276379445
              CHANNELS 3 Yrotation Xrotation Zrotation
              End Site
              {
                OFFSET -0.30409491089999996 0.5104519199999995 0.1276379445
              }
            }
            JOINT jaw
            {
              OFFSET -3.155239131000001e-7 -0.11984121820000082 0.60178107
              CHANNELS 3 Yrotation Xrotation Zrotation
              End Site
              {
                OFFSET -3.155239131000001e-7 -0.11984121820000082 0.60178107
              }
            }
          }
        }
        JOINT rightShoulder
        {
          OFFSET -0.1807303465 1.5087829790000005 0
          CHANNELS 3 Yrotation Xrotation Zrotation
          JOINT rightUpperArm
          {
            OFFSET -0.5985063796536958 0 0
            CHANNELS 3 Yrotation Xrotation Zrotation
            JOINT rightLowerArm
            {
              OFFSET -2.2993322059002854 0 0
              CHANNELS 3 Yrotation Xrotation Zrotation
              JOINT rightHand
              {
                OFFSET -2.395045314457259 0 0
                CHANNELS 3 Yrotation Xrotation Zrotation
                JOINT rightIndexProximal
                {
                  OFFSET -0.5764487688300002 0.0441371204405987 0.17361932004999997
                  CHANNELS 3 Yrotation Xrotation Zrotation
                  JOINT rightIndexIntermediate
                  {
                    OFFSET -0.29573011380000047 -0.01934826376999843 -0.007698921482999974
                    CHANNELS 3 Yrotation Xrotation Zrotation
                    JOINT rightIndexDistal
                    {
                      OFFSET -0.19008373999999884 -0.012503266380000655 -0.0026365778999999897
                      CHANNELS 3 Yrotation Xrotation Zrotation
                      End Site
                      {
                        OFFSET -0.19008373999999884 -0.012503266380000655 -0.0026365778999999897
                      }
                    }
                  }
                }
                JOINT rightMiddleProximal
                {
                  OFFSET -0.5834852037300005 0.05211639405060153 0.02307162440000001
                  CHANNELS 3 Yrotation Xrotation Zrotation
                  JOINT rightMiddleIntermediate
                  {
                    OFFSET -0.33880114510000003 -0.019952774050000954 0.0002455003561999819
                    CHANNELS 3 Yrotation Xrotation Zrotation
                    JOINT rightMiddleDistal
                    {
                      OFFSET -0.20675694929999955 -0.012273788999999091 0.00030209124000002766
                      CHANNELS 3 Yrotation Xrotation Zrotation
                      End Site
                      {
                        OFFSET -0.20675694929999955 -0.012273788999999091 0.00030209124000002766
                      }
                    }
                  }
                }
                JOINT rightLittleProximal
                {
                  OFFSET -0.5346811737299992 -0.011214256288399227 -0.24363941305000003
                  CHANNELS 3 Yrotation Xrotation Zrotation
                  JOINT rightLittleIntermediate
                  {
                    OFFSET -0.21757715980000092 -0.011771559690000988 0.01201554387
                    CHANNELS 3 Yrotation Xrotation Zrotation
                    JOINT rightLittleDistal
                    {
                      OFFSET -0.1475201849000004 -0.00822055339600003 0.006082065407000015
                      CHANNELS 3 Yrotation Xrotation Zrotation
                      End Site
                      {
                        OFFSET -0.1475201849000004 -0.00822055339600003 0.006082065407000015
                      }
                    }
                  }
                }
                JOINT rightRingProximal
                {
                  OFFSET -0.5800810755299999 0.027657985680600072 -0.12066365025000003
                  CHANNELS 3 Yrotation Xrotation Zrotation
                  JOINT rightRingIntermediate
                  {
                    OFFSET -0.26166445029999974 -0.013623118409999302 0.011164098990000045
                    CHANNELS 3 Yrotation Xrotation Zrotation
                    JOINT rightRingDistal
                    {
                      OFFSET -0.17666387530000027 -0.009072900100000503 0.005668185599999959
                      CHANNELS 3 Yrotation Xrotation Zrotation
                      End Site
                      {
                        OFFSET -0.17666387530000027 -0.009072900100000503 0.005668185599999959
                      }
                    }
                  }
                }
                JOINT rightThumbProximal
                {
                  OFFSET -0.10997596379000074 -0.09577489355940072 0.16989765924999997
                  CHANNELS 3 Yrotation Xrotation Zrotation
                  JOINT rightThumbIntermediate
                  {
                    OFFSET -0.31036620999999986 -0.08229339117999834 0.15440884469999996
                    CHANNELS 3 Yrotation Xrotation Zrotation
                    JOINT rightThumbDistal
                    {
                      OFFSET -0.21631306399999906 -0.08825326400000111 0.018656797720000014
                      CHANNELS 3 Yrotation Xrotation Zrotation
                      End Site
                      {
                        OFFSET -0.21631306399999906 -0.08825326400000111 0.018656797720000014
                      }
                    }
                  }
                }
              }
            }
          }
        }
      }
    }
  }
}
MOTION
Frames: 8
Frame Time: 0.03333333333333333
-2.683922713060767e-7 -10.07322438200052 10.734286087095052 180 -85.99556960093058 180 4.612783781745204 -39.43521495918294 29.04952532453574 -153.76018730896814 83.78744443403737 -130.2274074462147 -11.13142803965436 15.727023975621705 -0.32786335312440446 0 0 0 -4.8047256117391255 -39.668041808609715 -29.11250793653101 153.79394873971506 83.79082203081796 130.2610218280021 11.244687336946887 15.747634853998374 0.07808647465051086 0 0 0 0 2.1696147243604798 0 -0.4500575220264 -1.6333474101876548 -0.0002338552909127437 0 0 0 2.1390761157412084 -2.835731320949392 -0.37433196580798567 -0.6208056326476273 -2.036660239347475 -83.38916857488405 -45.178677278618885 0.45567564474396227 2.618780766677511 6.769585462258956 0.07425864452880046 -16.681704755795472 0 0 0 0 0 0 0 0 0 0 0 0 0 0 0 0 0 0 0 0 0 0 0 0 0 0 0 0 0 0 0 0 0 0 0 0 0 0 0 0 0 0 0 0 0 0 14.026611283342234 0 0 -1.9240671001564795 0 0 0 0 0 0 0 0 0 0 -3.286605655098051 1.5718301913305666 1.8321141185497276 0.6739365691503243 -0.7216654928176042 82.91510465469115 66.60849031643829 -0.06583575432985173 3.144085179382762 -2.140295169623223 0.9056374446942956 16.308404824049017 0 0 0 0 0 0 0 0 0 0 0 0 0 0 0 0 0 0 0 0 0 0 0 0 0 0 0 0 0 0 0 0 0 0 0 0 0 0 0 0 0 0 0 0 0
-2.683922713060767e-7 -10.07322438200052 10.734286087095052 180 -85.99556960093058 180 4.396615334782979 -39.19212916748368 28.888227131358946 -153.76018730896814 83.78744443403737 -130.2274074462147 -10.929937169341429 15.627951252976647 -0.6518765563456042 0 0 0 -4.578429945770166 -39.41242466158052 -28.948740056826562 153.79394873971506 83.79082203081796 130.2610218280021 11.037215155838856 15.64677885653087 0.4150458169583753 0 0 0 0 1.794073724086714 0 -0.4499716798852225 -1.4082826222379181 -0.002036234084754083 0 0 0 2.0419758000946984 -2.6091932407345144 -0.7716698016937369 -0.6044454100076666 -2.1365727680088273 -83.09091204219979 -44.90187505933544 0.43566965546542624 2.7254618778772235 6.525470898255106 0.11725564687626497 -16.66056868431777 0 0 0 0 0 0 0 0 0 0 0 0 0 0 0 0 0 0 0 0 0 0 0 0 0 0 0 0 0 0 0 0 0 0 0 0 0 0 0 0 0 0 0 0 0 0 14.527823081294496 0 0 -1.347185029436283 0 0 0 0 0 0 0 0 0 0 -3.1149822789260053 1.567891215556985 2.1557058642382168 0.65207201821646 -0.8906392279914984 82.64063678141082 66.20360854387825 -0.053712372041402556 2.9983142168421044 -2.140295169623223 0.9056374446942956 16.308404824049017 0 0 0 0 0 0 0 0 0 0 0 0 0 0 0 0 0 0 0 0 0 0 0 0 0 0 0 0 0 0 0 0 0 0 0 0 0 0 0 0 0 0 0 0 0
-2.683922713060767e-7 -10.07322438200052 10.734286087095052 180 -85.99556960093058 180 4.288484115027418 -39.07077597035277 28.80736437373435 -153.76018730896814 83.78744443403737 -130.2274074462147 -10.829017594443034 15.578835272357678 -0.813951455591011 0 0 0 -4.465245163572765 -39.28481276695457 -28.86659102091413 153.79394873971506 83.79082203081796 130.2610218280021 10.933291348408261 15.596794997496572 0.5835944262471967 0 0 0 0 1.606312109179982 0 -0.44993186112682065 -1.2957521903659601 -0.0029371454107645395 0 0 0 1.9928464042479492 -2.4961853132622323 -0.9704425480250447 -0.5964609656744265 -2.1865587915951834 -82.94178845309098 -44.763483715709775 0.4254738694774542 2.778762938265892 6.4034225328676015 0.13878728514065608 -16.650068819491874 0 0 0 0 0 0 0 0 0 0 0 0 0 0 0 0 0 0 0 0 0 0 0 0 0 0 0 0 0 0 0 0 0 0 0 0 0 0 0 0 0 0 0 0 0 0 14.778407668466533 0 0 -1.058774049244877 0 0 0 0 0 0 0 0 0 0 -3.029182874064079 1.5655582606956404 2.3174903174211905 0.6414435556503973 -0.9751621308349209 82.50342662665044 66.00115909345944 -0.04803791333969961 2.9254017375465655 -2.140295169623223 0.9056374446942956 16.308404824049017 0 0 0 0 0 0 0 0 0 0 0 0 0 0 0 0 0 0 0 0 0 0 0 0 0 0 0 0 0 0 0 0 0 0 0 0 0 0 0 0 0 0 0 0 0
-2.683922713060767e-7 -10.07322438200052 10.734286087095052 180 -85.99556960093058 180 4.180318060216433 -38.94953886199463 28.726345423048123 -153.76018730896814 83.78744443403737 -130.2274074462147 -10.72797888391775 15.52999509310972 -0.9760773877785386 0 0 0 -4.352030517965852 -39.15732285316533 -28.784268222551933 153.79394873971506 83.79082203081796 130.2610218280021 10.829240728289404 15.547103346414541 0.752196055473554 0 0 0 0 1.4185506669432812 0 -0.44989378943324476 -1.183221740377166 -0.0038379400839862353 0 0 0 1.9433290489766712 -2.3833486047093824 -1.169295403136013 -0.5886063706037701 -2.236565277614519 -82.79266814292339 -44.62510100408641 0.4151493605248631 2.832039310839826 6.281377819058273 0.16034123458878835 -16.639615048389466 0 0 0 0 0 0 0 0 0 0 0 0 0 0 0 0 0 0 0 0 0 0 0 0 0 0 0 0 0 0 0 0 0 0 0 0 0 0 0 0 0 0 0 0 0 0 15.028991753711066 0 0 -0.7703630011805604 0 0 0 0 0 0 0 0 0 0 -2.9433904132403708 1.5629830667390774 2.4792707320312246 0.6310173642994826 -1.059710265311189 82.36622824490502 65.79870349117495 -0.04262112473348848 2.8524698483843176 -2.140295169623223 0.9056374446942956 16.308404824049017 0 0 0 0 0 0 0 0 0 0 0 0 0 0 0 0 0 0 0 0 0 0 0 0 0 0 0 0 0 0 0 0 0 0 0 0 0 0 0 0 0 0 0 0 0
-2.683922713060767e-7 -10.07322438200052 10.734286087095052 180 -85.99556960093058 180 3.9639016088867898 -38.70743463273324 28.563825724277187 -153.76018730896814 83.78744443403737 -130.2274074462147 -10.525563280259052 15.433150071441785 -1.3004535912867727 0 0 0 -4.125528543149903 -38.90274769503214 -28.619115971748684 153.79394873971506 83.79082203081796 130.2610218280021 10.620783798661463 15.448622247548919 1.0895263184672845 0 0 0 0 1.0430486287614855 0 -0.4498228846199735 -0.9581659877851028 -0.005639022531972458 0 0 0 1.8431427094541295 -2.1582157611367667 -1.5672085012989532 -0.5732868676052292 -2.3366359525248943 -82.49446714110647 -44.348387275952945 0.39411510824436574 2.93851361940375 6.037303064482244 0.20351387837020912 -16.61884478953691 0 0 0 0 0 0 0 0 0 0 0 0 0 0 0 0 0 0 0 0 0 0 0 0 0 0 0 0 0 0 0 0 0 0 0 0 0 0 0 0 0 0 0 0 0 0 15.53010320047661 0 0 -0.19362700009619127 0 0 0 0 0 0 0 0 0 0 -2.7718405020239003 1.5571077801068702 2.802798837691028 0.6107716560728462 -1.2288729931232578 82.09189990644953 65.39383100266006 -0.032561634620111655 2.70656350668718 -2.140295169623223 0.9056374446942956 16.308404824049017 0 0 0 0 0 0 0 0 0 0 0 0 0 0 0 0 0 0 0 0 0 0 0 0 0 0 0 0 0 0 0 0 0 0 0 0 0 0 0 0 0 0 0 0 0
-2.683922713060767e-7 -10.07322438200052 10.734286087095052 180 -85.99556960093058 180 3.8556464983927587 -38.58658265672922 28.48235516489511 -153.76018730896814 83.78744443403737 -130.2274074462147 -10.424189003846855 15.385146539995485 -1.4626984725433112 0 0 0 -4.012239292654837 -38.77566412693769 -28.536284798791446 153.79394873971506 83.79082203081796 130.2610218280021 10.51638060621699 15.399830526130849 1.258249292365922 0 0 0 0 0.8553146716299687 0 -0.44979002347949865 -0.845641577871113 -0.006539815775492708 0 0 0 1.792475194349695 -2.0459272162264135 -1.7662629823013698 -0.5658230378298682 -2.3866968037021423 -82.34536847489723 -44.21004975978903 0.383405898826766 2.9917086744454315 5.915277808951878 0.2251326323477262 -16.60852829251007 0 0 0 0 0 0 0 0 0 0 0 0 0 0 0 0 0 0 0 0 0 0 0 0 0 0 0 0 0 0 0 0 0 0 0 0 0 0 0 0 0 0 0 0 0 0 15.780622288074884 0 0 0.09468149940889253 0 0 0 0 0 0 0 0 0 0 -2.6860859187645216 1.553806728591329 2.9645428592942964 0.6009532163521318 -1.3134843295554877 81.95474835018867 65.19139534959334 -0.02791913138149264 2.633592393809546 -2.140295169623223 0.9056374446942956 16.308404824049017 0 0 0 0 0 0 0 0 0 0 0 0 0 0 0 0 0 0 0 0 0 0 0 0 0 0 0 0 0 0 0 0 0 0 0 0 0 0 0 0 0 0 0 0 0
-2.683922713060767e-7 -10.07322438200052 10.734286087095052 180 -85.99556960093058 180 3.7473539582988726 -38.46584649957525 28.400728862735914 -153.76018730896814 83.78744443403737 -130.2274074462147 -10.322696518596702 15.337419663738183 -1.6249938242604505 0 0 0 -3.898916396990948 -38.648706019034705 -28.45328210772469 153.79394873971506 83.79082203081796 130.2610218280021 10.411852285678108 15.351333562559448 1.4270248168133215 0 0 0 0 0.6675806653322408 0 -0.449758906991828 -0.733117174455102 -0.007440520432082244 0 0 0 1.7414212657034767 -1.9338152485637135 -1.9654031201588247 -0.5584893421804825 -2.436777209838392 -82.19627063401242 -44.0717224839814 0.3725682871955956 3.044877530157356 5.793256216806162 0.24677330987033808 -16.5982578694698 0 0 0 0 0 0 0 0 0 0 0 0 0 0 0 0 0 0 0 0 0 0 0 0 0 0 0 0 0 0 0 0 0 0 0 0 0 0 0 0 0 0 0 0 0 0 16.031140406615133 0 0 0.3829899950376345 0 0 0 0 0 0 0 0 0 0 -2.600340843706697 1.5502636555263651 3.1262813121263004 0.5913370127938312 -1.3981188141719918 81.81760605092309 64.98895261909271 -0.023534477994015552 2.560605267247434 -2.140295169623223 0.9056375514293344 16.308408102143737 0 0 0 0 0 0 0 0 0 0 0 0 0 0 0 0 0 0 0 0 0 0 0 0 0 0 0 0 0 0 0 0 0 0 0 0 0 0 0 0 0 0 0 0 0
-2.683922713060767e-7 -10.07322438200052 10.734286087095052 180 -85.99556960093058 180 3.5306862792221985 -38.22476065860966 28.237017731276392 -153.76018730896814 83.78744443403737 -130.2274074462147 -10.119395629488139 15.242812685431785 -1.9496885671905235 0 0 0 -3.672200339824284 -38.39522204618527 -28.2867676384385 153.79394873971506 83.79082203081796 130.2610218280021 10.202459088120026 15.255251268344308 1.764680308563466 0 0 0 0 0.292152655944532 0 -0.4497018258358963 -0.5080783910300611 -0.009240463787315387 0 0 0 1.638172703824067 -1.7101644584582547 -2.363879803724826 -0.5442133231183003 -2.536987234398625 -81.89810124183613 -43.79511465633108 0.35050924504981906 3.151128940673923 5.54923243506693 0.29011701984913973 -16.577856549187807 0 0 0 0 0 0 0 0 0 0 0 0 0 0 0 0 0 0 0 0 0 0 0 0 0 0 0 0 0 0 0 0 0 0 0 0 0 0 0 0 0 0 0 0 0 0 16.532078938442577 0 0 0.9594610235692879 0 0 0 0 0 0 0 0 0 0 -2.428900310817753 1.5424542254068303 3.4497087970219744 0.5727134952281185 -1.567441962469346 81.54337015099703 64.58411532622253 -0.015539190815432015 2.4146080197191324 -2.140295169623223 0.9056374446942956 16.308404824049017 0 0 0 0 0 0 0 0 0 0 0 0 0 0 0 0 0 0 0 0 0 0 0 0 0 0 0 0 0 0 0 0 0 0 0 0 0 0 0 0 0 0 0 0 0
